<mxfile host="app.diagrams.net" modified="2023-06-16T01:27:18.388Z" agent="Mozilla/5.0 (Windows NT 10.0; Win64; x64) AppleWebKit/537.36 (KHTML, like Gecko) Chrome/114.0.0.0 Safari/537.36" etag="D8VR0Xo-uV3KoxCVsYgK" version="21.3.8" type="device">
  <diagram name="페이지-1" id="fYRx3lUVyzc-afdmc7QN">
    <mxGraphModel dx="2049" dy="1126" grid="1" gridSize="10" guides="1" tooltips="1" connect="1" arrows="1" fold="1" page="1" pageScale="1" pageWidth="4681" pageHeight="3300" math="0" shadow="0">
      <root>
        <mxCell id="0" />
        <mxCell id="1" parent="0" />
        <mxCell id="uE8spib91R3WZkdDd9FY-8" style="rounded=0;orthogonalLoop=1;jettySize=auto;html=1;entryX=0.5;entryY=0;entryDx=0;entryDy=0;exitX=0.5;exitY=1;exitDx=0;exitDy=0;" edge="1" parent="1" source="uE8spib91R3WZkdDd9FY-2" target="uE8spib91R3WZkdDd9FY-3">
          <mxGeometry relative="1" as="geometry" />
        </mxCell>
        <mxCell id="uE8spib91R3WZkdDd9FY-2" value="상품정보" style="rounded=1;arcSize=10;whiteSpace=wrap;html=1;align=center;fillColor=#008a00;strokeColor=#005700;fontColor=#ffffff;" vertex="1" parent="1">
          <mxGeometry x="660" y="700" width="140" height="50" as="geometry" />
        </mxCell>
        <mxCell id="uE8spib91R3WZkdDd9FY-3" value="상품코드" style="ellipse;whiteSpace=wrap;html=1;align=center;fontStyle=4;fillColor=#e1d5e7;strokeColor=#9673a6;" vertex="1" parent="1">
          <mxGeometry x="380" y="870" width="100" height="40" as="geometry" />
        </mxCell>
        <mxCell id="uE8spib91R3WZkdDd9FY-4" value="상품명" style="ellipse;whiteSpace=wrap;html=1;align=center;" vertex="1" parent="1">
          <mxGeometry x="530" y="870" width="100" height="40" as="geometry" />
        </mxCell>
        <mxCell id="uE8spib91R3WZkdDd9FY-5" value="품목" style="ellipse;whiteSpace=wrap;html=1;align=center;" vertex="1" parent="1">
          <mxGeometry x="680" y="870" width="100" height="40" as="geometry" />
        </mxCell>
        <mxCell id="uE8spib91R3WZkdDd9FY-6" value="매입단가" style="ellipse;whiteSpace=wrap;html=1;align=center;" vertex="1" parent="1">
          <mxGeometry x="830" y="870" width="100" height="40" as="geometry" />
        </mxCell>
        <mxCell id="uE8spib91R3WZkdDd9FY-7" value="매출단가" style="ellipse;whiteSpace=wrap;html=1;align=center;" vertex="1" parent="1">
          <mxGeometry x="980" y="870" width="100" height="40" as="geometry" />
        </mxCell>
        <mxCell id="uE8spib91R3WZkdDd9FY-9" style="rounded=0;orthogonalLoop=1;jettySize=auto;html=1;entryX=0.5;entryY=0;entryDx=0;entryDy=0;exitX=0.5;exitY=1;exitDx=0;exitDy=0;" edge="1" parent="1" source="uE8spib91R3WZkdDd9FY-2" target="uE8spib91R3WZkdDd9FY-4">
          <mxGeometry relative="1" as="geometry">
            <mxPoint x="587" y="810" as="sourcePoint" />
            <mxPoint x="440" y="880" as="targetPoint" />
          </mxGeometry>
        </mxCell>
        <mxCell id="uE8spib91R3WZkdDd9FY-10" style="rounded=0;orthogonalLoop=1;jettySize=auto;html=1;entryX=0.5;entryY=0;entryDx=0;entryDy=0;exitX=0.5;exitY=1;exitDx=0;exitDy=0;" edge="1" parent="1" source="uE8spib91R3WZkdDd9FY-2" target="uE8spib91R3WZkdDd9FY-5">
          <mxGeometry relative="1" as="geometry">
            <mxPoint x="810" y="810" as="sourcePoint" />
            <mxPoint x="590" y="880" as="targetPoint" />
          </mxGeometry>
        </mxCell>
        <mxCell id="uE8spib91R3WZkdDd9FY-11" style="rounded=0;orthogonalLoop=1;jettySize=auto;html=1;entryX=0.5;entryY=0;entryDx=0;entryDy=0;exitX=0.5;exitY=1;exitDx=0;exitDy=0;" edge="1" parent="1" source="uE8spib91R3WZkdDd9FY-2" target="uE8spib91R3WZkdDd9FY-6">
          <mxGeometry relative="1" as="geometry">
            <mxPoint x="920" y="720" as="sourcePoint" />
            <mxPoint x="880" y="830" as="targetPoint" />
          </mxGeometry>
        </mxCell>
        <mxCell id="uE8spib91R3WZkdDd9FY-12" style="rounded=0;orthogonalLoop=1;jettySize=auto;html=1;entryX=0.5;entryY=0;entryDx=0;entryDy=0;exitX=0.5;exitY=1;exitDx=0;exitDy=0;" edge="1" parent="1" source="uE8spib91R3WZkdDd9FY-2" target="uE8spib91R3WZkdDd9FY-7">
          <mxGeometry relative="1" as="geometry">
            <mxPoint x="900" y="740" as="sourcePoint" />
            <mxPoint x="1010" y="850" as="targetPoint" />
          </mxGeometry>
        </mxCell>
        <mxCell id="uE8spib91R3WZkdDd9FY-13" style="rounded=0;orthogonalLoop=1;jettySize=auto;html=1;entryX=0.5;entryY=0;entryDx=0;entryDy=0;exitX=0.5;exitY=1;exitDx=0;exitDy=0;" edge="1" source="uE8spib91R3WZkdDd9FY-14" target="uE8spib91R3WZkdDd9FY-15" parent="1">
          <mxGeometry relative="1" as="geometry" />
        </mxCell>
        <mxCell id="uE8spib91R3WZkdDd9FY-14" value="고객정보" style="rounded=1;arcSize=10;whiteSpace=wrap;html=1;align=center;fillColor=#008a00;strokeColor=#005700;fontColor=#ffffff;" vertex="1" parent="1">
          <mxGeometry x="1370" y="700" width="140" height="50" as="geometry" />
        </mxCell>
        <mxCell id="uE8spib91R3WZkdDd9FY-15" value="고객ID" style="ellipse;whiteSpace=wrap;html=1;align=center;fontStyle=4;fillColor=#e1d5e7;strokeColor=#9673a6;" vertex="1" parent="1">
          <mxGeometry x="1160" y="870" width="100" height="40" as="geometry" />
        </mxCell>
        <mxCell id="uE8spib91R3WZkdDd9FY-16" value="고객이름" style="ellipse;whiteSpace=wrap;html=1;align=center;" vertex="1" parent="1">
          <mxGeometry x="1310" y="870" width="100" height="40" as="geometry" />
        </mxCell>
        <mxCell id="uE8spib91R3WZkdDd9FY-17" value="전화번호" style="ellipse;whiteSpace=wrap;html=1;align=center;" vertex="1" parent="1">
          <mxGeometry x="1460" y="870" width="100" height="40" as="geometry" />
        </mxCell>
        <mxCell id="uE8spib91R3WZkdDd9FY-18" value="주소" style="ellipse;whiteSpace=wrap;html=1;align=center;" vertex="1" parent="1">
          <mxGeometry x="1610" y="870" width="100" height="40" as="geometry" />
        </mxCell>
        <mxCell id="uE8spib91R3WZkdDd9FY-20" style="rounded=0;orthogonalLoop=1;jettySize=auto;html=1;entryX=0.5;entryY=0;entryDx=0;entryDy=0;exitX=0.5;exitY=1;exitDx=0;exitDy=0;" edge="1" source="uE8spib91R3WZkdDd9FY-14" target="uE8spib91R3WZkdDd9FY-16" parent="1">
          <mxGeometry relative="1" as="geometry">
            <mxPoint x="1367" y="810" as="sourcePoint" />
            <mxPoint x="1220" y="880" as="targetPoint" />
          </mxGeometry>
        </mxCell>
        <mxCell id="uE8spib91R3WZkdDd9FY-21" style="rounded=0;orthogonalLoop=1;jettySize=auto;html=1;entryX=0.5;entryY=0;entryDx=0;entryDy=0;exitX=0.5;exitY=1;exitDx=0;exitDy=0;" edge="1" source="uE8spib91R3WZkdDd9FY-14" target="uE8spib91R3WZkdDd9FY-17" parent="1">
          <mxGeometry relative="1" as="geometry">
            <mxPoint x="1590" y="810" as="sourcePoint" />
            <mxPoint x="1370" y="880" as="targetPoint" />
          </mxGeometry>
        </mxCell>
        <mxCell id="uE8spib91R3WZkdDd9FY-22" style="rounded=0;orthogonalLoop=1;jettySize=auto;html=1;entryX=0.5;entryY=0;entryDx=0;entryDy=0;exitX=0.5;exitY=1;exitDx=0;exitDy=0;" edge="1" source="uE8spib91R3WZkdDd9FY-14" target="uE8spib91R3WZkdDd9FY-18" parent="1">
          <mxGeometry relative="1" as="geometry">
            <mxPoint x="1700" y="720" as="sourcePoint" />
            <mxPoint x="1660" y="830" as="targetPoint" />
          </mxGeometry>
        </mxCell>
        <mxCell id="uE8spib91R3WZkdDd9FY-39" style="rounded=0;orthogonalLoop=1;jettySize=auto;html=1;entryX=0.5;entryY=1;entryDx=0;entryDy=0;exitX=0.5;exitY=0;exitDx=0;exitDy=0;" edge="1" parent="1" source="uE8spib91R3WZkdDd9FY-24" target="uE8spib91R3WZkdDd9FY-38">
          <mxGeometry relative="1" as="geometry" />
        </mxCell>
        <mxCell id="uE8spib91R3WZkdDd9FY-40" style="edgeStyle=none;shape=connector;rounded=0;orthogonalLoop=1;jettySize=auto;html=1;entryX=0.5;entryY=1;entryDx=0;entryDy=0;labelBackgroundColor=default;strokeColor=default;fontFamily=Helvetica;fontSize=11;fontColor=default;endArrow=classic;exitX=0.5;exitY=0;exitDx=0;exitDy=0;" edge="1" parent="1" source="uE8spib91R3WZkdDd9FY-24" target="uE8spib91R3WZkdDd9FY-33">
          <mxGeometry relative="1" as="geometry" />
        </mxCell>
        <mxCell id="uE8spib91R3WZkdDd9FY-41" style="edgeStyle=none;shape=connector;rounded=0;orthogonalLoop=1;jettySize=auto;html=1;entryX=0.5;entryY=1;entryDx=0;entryDy=0;labelBackgroundColor=default;strokeColor=default;fontFamily=Helvetica;fontSize=11;fontColor=default;endArrow=classic;exitX=0.5;exitY=0;exitDx=0;exitDy=0;" edge="1" parent="1" source="uE8spib91R3WZkdDd9FY-24" target="uE8spib91R3WZkdDd9FY-34">
          <mxGeometry relative="1" as="geometry" />
        </mxCell>
        <mxCell id="uE8spib91R3WZkdDd9FY-42" style="edgeStyle=none;shape=connector;rounded=0;orthogonalLoop=1;jettySize=auto;html=1;entryX=0.5;entryY=1;entryDx=0;entryDy=0;labelBackgroundColor=default;strokeColor=default;fontFamily=Helvetica;fontSize=11;fontColor=default;endArrow=classic;exitX=0.5;exitY=0;exitDx=0;exitDy=0;" edge="1" parent="1" source="uE8spib91R3WZkdDd9FY-24" target="uE8spib91R3WZkdDd9FY-35">
          <mxGeometry relative="1" as="geometry" />
        </mxCell>
        <mxCell id="uE8spib91R3WZkdDd9FY-43" style="edgeStyle=none;shape=connector;rounded=0;orthogonalLoop=1;jettySize=auto;html=1;entryX=0.5;entryY=1;entryDx=0;entryDy=0;labelBackgroundColor=default;strokeColor=default;fontFamily=Helvetica;fontSize=11;fontColor=default;endArrow=classic;exitX=0.5;exitY=0;exitDx=0;exitDy=0;" edge="1" parent="1" source="uE8spib91R3WZkdDd9FY-24" target="uE8spib91R3WZkdDd9FY-36">
          <mxGeometry relative="1" as="geometry" />
        </mxCell>
        <mxCell id="uE8spib91R3WZkdDd9FY-44" style="edgeStyle=none;shape=connector;rounded=0;orthogonalLoop=1;jettySize=auto;html=1;entryX=0.5;entryY=1;entryDx=0;entryDy=0;labelBackgroundColor=default;strokeColor=default;fontFamily=Helvetica;fontSize=11;fontColor=default;endArrow=classic;exitX=0.5;exitY=0;exitDx=0;exitDy=0;" edge="1" parent="1" source="uE8spib91R3WZkdDd9FY-24" target="uE8spib91R3WZkdDd9FY-37">
          <mxGeometry relative="1" as="geometry" />
        </mxCell>
        <mxCell id="uE8spib91R3WZkdDd9FY-24" value="판매내역" style="shape=rhombus;perimeter=rhombusPerimeter;whiteSpace=wrap;html=1;align=center;fillColor=#60a917;strokeColor=#2D7600;fontColor=#ffffff;" vertex="1" parent="1">
          <mxGeometry x="1020" y="600" width="160" height="100" as="geometry" />
        </mxCell>
        <mxCell id="uE8spib91R3WZkdDd9FY-29" value="" style="endArrow=none;html=1;rounded=0;exitX=0.5;exitY=0;exitDx=0;exitDy=0;entryX=0.5;entryY=1;entryDx=0;entryDy=0;" edge="1" parent="1" source="uE8spib91R3WZkdDd9FY-2" target="uE8spib91R3WZkdDd9FY-24">
          <mxGeometry relative="1" as="geometry">
            <mxPoint x="910" y="630" as="sourcePoint" />
            <mxPoint x="1070" y="630" as="targetPoint" />
          </mxGeometry>
        </mxCell>
        <mxCell id="uE8spib91R3WZkdDd9FY-30" value="N" style="resizable=0;html=1;whiteSpace=wrap;align=right;verticalAlign=bottom;" connectable="0" vertex="1" parent="uE8spib91R3WZkdDd9FY-29">
          <mxGeometry x="1" relative="1" as="geometry" />
        </mxCell>
        <mxCell id="uE8spib91R3WZkdDd9FY-31" value="" style="endArrow=none;html=1;rounded=0;exitX=0.5;exitY=0;exitDx=0;exitDy=0;entryX=0.5;entryY=1;entryDx=0;entryDy=0;" edge="1" parent="1" source="uE8spib91R3WZkdDd9FY-14" target="uE8spib91R3WZkdDd9FY-24">
          <mxGeometry relative="1" as="geometry">
            <mxPoint x="1130" y="610" as="sourcePoint" />
            <mxPoint x="1290" y="610" as="targetPoint" />
          </mxGeometry>
        </mxCell>
        <mxCell id="uE8spib91R3WZkdDd9FY-32" value="N" style="resizable=0;html=1;whiteSpace=wrap;align=right;verticalAlign=bottom;" connectable="0" vertex="1" parent="uE8spib91R3WZkdDd9FY-31">
          <mxGeometry x="1" relative="1" as="geometry" />
        </mxCell>
        <mxCell id="uE8spib91R3WZkdDd9FY-33" value="거래일자" style="ellipse;whiteSpace=wrap;html=1;align=center;" vertex="1" parent="1">
          <mxGeometry x="835" y="390" width="100" height="40" as="geometry" />
        </mxCell>
        <mxCell id="uE8spib91R3WZkdDd9FY-34" value="거래시각" style="ellipse;whiteSpace=wrap;html=1;align=center;" vertex="1" parent="1">
          <mxGeometry x="975" y="390" width="100" height="40" as="geometry" />
        </mxCell>
        <mxCell id="uE8spib91R3WZkdDd9FY-35" value="수량" style="ellipse;whiteSpace=wrap;html=1;align=center;" vertex="1" parent="1">
          <mxGeometry x="1125" y="390" width="100" height="40" as="geometry" />
        </mxCell>
        <mxCell id="uE8spib91R3WZkdDd9FY-36" value="판매단가" style="ellipse;whiteSpace=wrap;html=1;align=center;" vertex="1" parent="1">
          <mxGeometry x="1265" y="390" width="100" height="40" as="geometry" />
        </mxCell>
        <mxCell id="uE8spib91R3WZkdDd9FY-37" value="판매금액" style="ellipse;whiteSpace=wrap;html=1;align=center;" vertex="1" parent="1">
          <mxGeometry x="1415" y="390" width="100" height="40" as="geometry" />
        </mxCell>
        <mxCell id="uE8spib91R3WZkdDd9FY-38" value="SEQ" style="ellipse;whiteSpace=wrap;html=1;align=center;fontStyle=4;fillColor=#e1d5e7;strokeColor=#9673a6;" vertex="1" parent="1">
          <mxGeometry x="685" y="390" width="100" height="40" as="geometry" />
        </mxCell>
      </root>
    </mxGraphModel>
  </diagram>
</mxfile>
